<svg width="101" height="101" viewBox="0 0 101 101" fill="none" xmlns="http://www.w3.org/2000/svg">
<path d="M80.5 3V12.5M20.5 3V12.5" stroke="#F5F5F5" stroke-width="5" stroke-linecap="round" stroke-linejoin="round"/>
<path d="M3 51.6554C3 30.9582 3 20.6096 9.26059 14.1798C15.5212 7.75 25.5975 7.75 45.75 7.75H55.25C75.4025 7.75 85.4788 7.75 91.7394 14.1798C98 20.6096 98 30.9582 98 51.6554V54.0946C98 74.7918 98 85.1404 91.7394 91.5702C85.4788 98 75.4025 98 55.25 98H45.75C25.5975 98 15.5212 98 9.26059 91.5702C3 85.1404 3 74.7918 3 54.0946V51.6554Z" stroke="#F5F5F5" stroke-width="5" stroke-linecap="round" stroke-linejoin="round"/>
<path d="M5.5 31.5H95.5" stroke="#F5F5F5" stroke-width="5" stroke-linecap="round" stroke-linejoin="round"/>
</svg>
