<svg width="65" height="49" viewBox="0 0 65 49" fill="none" xmlns="http://www.w3.org/2000/svg">
<path d="M2 24.5C2 14.5508 2 9.57624 5.21104 6.25503C5.72462 5.72383 6.29067 5.23256 6.90274 4.78682C10.7295 2 16.4613 2 27.925 2H37.075C48.5387 2 54.2705 2 58.0973 4.78682C58.7093 5.23256 59.2754 5.72383 59.789 6.25503C63 9.57624 63 14.5508 63 24.5C63 34.4492 63 39.4238 59.789 42.745C59.2754 43.2762 58.7093 43.7674 58.0973 44.2132C54.2705 47 48.5387 47 37.075 47H27.925C16.4613 47 10.7295 47 6.90274 44.2132C6.29067 43.7674 5.72462 43.2762 5.21104 42.745C2 39.4238 2 34.4492 2 24.5Z" stroke="#F5F5F5" stroke-width="3" stroke-linecap="round" stroke-linejoin="round"/>
<path d="M26.4001 35.75H30.9751" stroke="#F5F5F5" stroke-width="3" stroke-miterlimit="10" stroke-linecap="round" stroke-linejoin="round"/>
<path d="M40.125 35.75L50.8 35.75" stroke="#F5F5F5" stroke-width="3" stroke-miterlimit="10" stroke-linecap="round" stroke-linejoin="round"/>
<path d="M2 18.2051H63" stroke="#F5F5F5" stroke-width="3" stroke-linejoin="round"/>
</svg>
