<svg width="74" height="62" viewBox="0 0 74 62" fill="none" xmlns="http://www.w3.org/2000/svg">
<path d="M2 43.8889C2 51.013 2 54.575 4.45653 56.9532C4.84944 57.3336 5.28248 57.6853 5.75073 58.0045C8.67831 60 13.0633 60 21.8333 60H24.1666C32.9367 60 37.3217 60 40.2492 58.0045C40.7175 57.6853 41.1505 57.3336 41.5434 56.9532C44 54.575 44 51.013 44 43.8889C44 36.7648 44 33.2027 41.5434 30.8246C41.1505 30.4442 40.7175 30.0924 40.2492 29.7733C37.3217 27.7778 32.9367 27.7778 24.1666 27.7778H21.8333C13.0633 27.7778 8.67831 27.7778 5.75073 29.7733C5.28248 30.0924 4.84944 30.4442 4.45653 30.8246C2 33.2027 2 36.7648 2 43.8889Z" fill="#F5F5F5" stroke="#F5F5F5" stroke-width="3" stroke-linecap="round" stroke-linejoin="round"/>
<path d="M30 18.1111C30 10.987 30 7.42499 32.4565 5.04684C32.8494 4.66647 33.2825 4.3147 33.7507 3.99553C36.6783 2.00003 41.0633 2.00003 49.8333 2.00003H52.1666C60.9367 2.00003 65.3217 2.00003 68.2492 3.99553C68.7175 4.3147 69.1505 4.66647 69.5434 5.04684C72 7.42499 72 10.987 72 18.1111C72 25.2352 72 28.7973 69.5434 31.1754C69.1505 31.5558 68.7175 31.9076 68.2492 32.2267C65.5937 34.0368 61.7389 34.205 54.5 34.2206" stroke="#F5F5F5" stroke-width="3" stroke-linecap="round" stroke-linejoin="round"/>
<path d="M2 21.3333C2 10.6448 11.39 2 23 2L20 7.52381" stroke="#F5F5F5" stroke-width="3" stroke-linecap="round" stroke-linejoin="round"/>
<path d="M72 40.6667C72 51.3552 62.61 60 51 60L54 54.4762" stroke="#F5F5F5" stroke-width="3" stroke-linecap="round" stroke-linejoin="round"/>
</svg>
