<svg width="88" height="64" viewBox="0 0 88 64" fill="none" xmlns="http://www.w3.org/2000/svg">
<path d="M19.5785 19.1875C18.7334 19.1875 17.9623 18.595 18.0012 17.8204C18.2287 13.2849 18.8661 10.3323 20.652 7.99658C21.6795 6.65283 22.9558 5.48408 24.4231 4.54317C28.3893 2 33.9845 2 45.1748 2H58.8248C70.0151 2 75.6103 2 79.5764 4.54317C81.0438 5.48408 82.3201 6.65283 83.3476 7.99658C85.1333 10.332 85.7708 13.2843 85.9983 17.8189C86.0373 18.5943 85.2651 19.1875 84.4191 19.1875C79.7075 19.1875 75.8879 22.6853 75.8879 27C75.8879 31.3147 79.7075 34.8125 84.4191 34.8125C85.2651 34.8125 86.0373 35.4057 85.9983 36.1811C85.7708 40.7157 85.1333 43.668 83.3476 46.0034C82.3201 47.3472 81.0438 48.5159 79.5764 49.4568C75.6103 52 70.0151 52 58.8248 52H45.1748C33.9845 52 28.3893 52 24.4231 49.4568C22.9558 48.5159 21.6795 47.3472 20.652 46.0034C18.8661 43.6677 18.2287 40.7151 18.0012 36.1796C17.9623 35.405 18.7334 34.8125 19.5785 34.8125C24.2902 34.8125 28.1097 31.3147 28.1097 27C28.1097 22.6853 24.2902 19.1875 19.5785 19.1875Z" stroke="#F5F5F5" stroke-width="3" stroke-linejoin="round"/>
<path d="M41.8247 12.25C47.4047 12.25 51.6443 12.2491 54.9819 12.5713C58.3294 12.8944 60.8549 13.549 62.981 14.9121C64.5193 15.8985 65.8609 17.1261 66.9429 18.541C68.8739 21.0665 69.5184 24.2156 69.7476 28.7812C69.781 29.4474 69.4599 30.0039 69.021 30.3701C68.587 30.7321 68.01 30.9375 67.4185 30.9375C63.0579 30.9379 59.6372 34.1605 59.6372 38C59.6372 41.8395 63.0579 45.0621 67.4185 45.0625C68.01 45.0625 68.587 45.2679 69.021 45.6299C69.4599 45.9961 69.781 46.5526 69.7476 47.2188C69.5184 51.7844 68.8739 54.9335 66.9429 57.459C65.8609 58.8739 64.5193 60.1015 62.981 61.0879C60.8549 62.451 58.3294 63.1056 54.9819 63.4287C51.6443 63.7509 47.4047 63.75 41.8247 63.75H28.1743C22.5946 63.75 18.3556 63.7508 15.0181 63.4287C11.6704 63.1055 9.14415 62.4512 7.01807 61.0879C5.47979 60.1015 4.13807 58.8739 3.05615 57.459C1.12503 54.9333 0.480523 51.7832 0.251465 47.2168C0.218223 46.5514 0.539686 45.9957 0.978027 45.6299C1.41156 45.2682 1.98766 45.0626 2.57861 45.0625C6.93938 45.0623 10.3599 41.8396 10.3599 38C10.3599 34.1604 6.93938 30.9377 2.57861 30.9375C1.98766 30.9374 1.41156 30.7318 0.978027 30.3701C0.539686 30.0043 0.218222 29.4486 0.251465 28.7832C0.480523 24.2168 1.12503 21.0667 3.05615 18.541C4.13807 17.1261 5.47979 15.8985 7.01807 14.9121C9.14415 13.5488 11.6704 12.8945 15.0181 12.5713C18.3556 12.2492 22.5946 12.25 28.1743 12.25H41.8247ZM34.9995 30.5C34.1713 30.5002 33.4995 31.1717 33.4995 32V36.5H28.9995C28.1713 36.5002 27.4995 37.1717 27.4995 38C27.4995 38.8283 28.1713 39.4998 28.9995 39.5H33.4995V44C33.4995 44.8283 34.1713 45.4998 34.9995 45.5C35.8279 45.5 36.4995 44.8284 36.4995 44V39.5H40.9995C41.8279 39.5 42.4995 38.8284 42.4995 38C42.4995 37.1716 41.8279 36.5 40.9995 36.5H36.4995V32C36.4995 31.1716 35.8279 30.5 34.9995 30.5Z" fill="#F5F5F5"/>
</svg>
