<svg width="158" height="158" viewBox="0 0 158 158" fill="none" xmlns="http://www.w3.org/2000/svg">
<ellipse cx="79" cy="86.4998" rx="67.5" ry="67.4998" stroke="#F5F5F5" stroke-width="7" stroke-linecap="round"/>
<path d="M26.5 131.5L11.5 146.5M131.5 131.5L146.5 146.5" stroke="#F5F5F5" stroke-width="7" stroke-linecap="round" stroke-linejoin="round"/>
<path d="M131.5 15.7727L135.966 13.5396C142.306 10.3699 144.687 10.7327 149.727 15.7727C154.767 20.8128 155.13 23.1943 151.96 29.5337L149.727 33.9999M26.5 15.7727L22.0338 13.5396C15.6943 10.3699 13.3128 10.7327 8.27274 15.7727C3.2327 20.8128 2.86991 23.1943 6.03963 29.5337L8.27274 33.9999" stroke="#F5F5F5" stroke-width="7" stroke-linecap="round"/>
<path d="M79 60.25V90.2499L94 105.25" stroke="#F5F5F5" stroke-width="7" stroke-linecap="round" stroke-linejoin="round"/>
<path d="M79 15.25V4" stroke="#F5F5F5" stroke-width="7" stroke-linecap="round" stroke-linejoin="round"/>
<path d="M64 4H94" stroke="#F5F5F5" stroke-width="7" stroke-linecap="round" stroke-linejoin="round"/>
</svg>
