<svg width="126" height="81" viewBox="0 0 126 81" fill="none" xmlns="http://www.w3.org/2000/svg">
<mask id="path-1-inside-1_431_724" fill="white">
<path d="M126 22.9567C126 24.1941 125.16 25.2534 124.029 25.7568C122.263 26.5434 120.658 27.6961 119.307 29.1494C117.955 30.6028 116.883 32.3287 116.151 34.2275C115.42 36.1263 115.044 38.1616 115.044 40.2168C115.044 42.2722 115.42 44.3081 116.151 46.207C116.883 48.1059 117.955 49.8318 119.307 51.2852C120.658 52.7385 122.263 53.8912 124.029 54.6777C125.159 55.1811 126 56.2394 126 57.4765V70.2178C126 75.7406 121.523 80.2178 116 80.2178H10C4.47715 80.2178 0 75.7406 0 70.2178V56.5232C0 55.7038 0.536978 54.9913 1.29395 54.6777C3.19285 53.8912 4.91868 52.7385 6.37207 51.2852C7.82542 49.8318 8.97806 48.1059 9.76465 46.207C10.5512 44.3081 10.956 42.2722 10.9561 40.2168C10.956 38.1615 10.5511 36.1264 9.76465 34.2275C8.97807 32.3286 7.82546 30.6028 6.37207 29.1494C4.91866 27.696 3.19292 26.5434 1.29395 25.7568C0.5368 25.4432 0 24.7296 0 23.9101V10.2178C0 4.69493 4.47715 0.217773 10 0.217773H116C121.523 0.217773 126 4.69493 126 10.2178V22.9567Z"/>
</mask>
<path d="M119.307 29.1494L115.645 25.7444L115.645 25.7444L119.307 29.1494ZM116.151 34.2275L111.486 32.4302L111.486 32.4303L116.151 34.2275ZM115.044 40.2168L110.044 40.2167V40.2169L115.044 40.2168ZM116.151 46.207L111.486 48.0044L111.486 48.0044L116.151 46.207ZM119.307 51.2852L115.645 54.6902L115.645 54.6903L119.307 51.2852ZM6.37207 51.2852L9.90753 54.8208L9.9076 54.8207L6.37207 51.2852ZM9.76465 46.207L14.384 48.1206L14.384 48.1204L9.76465 46.207ZM10.9561 40.2168L15.9561 40.2169V40.2167L10.9561 40.2168ZM9.76465 34.2275L14.3841 32.3142L14.384 32.3141L9.76465 34.2275ZM6.37207 29.1494L9.90764 25.6139L9.9076 25.6139L6.37207 29.1494ZM124.029 25.7568L121.995 21.1894C119.598 22.257 117.443 23.8108 115.645 25.7444L119.307 29.1494L122.968 32.5545C123.873 31.5814 124.929 30.8298 126.064 30.3242L124.029 25.7568ZM119.307 29.1494L115.645 25.7444C113.848 27.6769 112.44 29.952 111.486 32.4302L116.151 34.2275L120.817 36.0249C121.325 34.7053 122.062 33.5287 122.968 32.5544L119.307 29.1494ZM116.151 34.2275L111.486 32.4303C110.531 34.9091 110.044 37.5542 110.044 40.2167L115.044 40.2168L120.044 40.2169C120.044 38.769 120.309 37.3435 120.817 36.0248L116.151 34.2275ZM115.044 40.2168L110.044 40.2169C110.044 42.8793 110.53 45.525 111.486 48.0044L116.151 46.207L120.817 44.4097C120.309 43.0912 120.044 41.6651 120.044 40.2167L115.044 40.2168ZM116.151 46.207L111.486 48.0044C112.44 50.4825 113.848 52.7576 115.645 54.6902L119.307 51.2852L122.968 47.8801C122.062 46.9059 121.326 45.7293 120.817 44.4096L116.151 46.207ZM119.307 51.2852L115.645 54.6903C117.443 56.6237 119.598 58.1776 121.995 59.2452L124.029 54.6777L126.064 50.1103C124.929 49.6048 123.873 48.8532 122.968 47.8801L119.307 51.2852ZM126 57.4765H121V70.2178H126H131V57.4765H126ZM116 80.2178V75.2178H10V80.2178V85.2178H116V80.2178ZM0 70.2178H5V56.5232H0H-5V70.2178H0ZM1.29395 54.6777L3.20736 59.2971C5.71231 58.2596 7.98943 56.7388 9.90753 54.8208L6.37207 51.2852L2.83661 47.7495C1.84793 48.7382 0.673401 49.5228 -0.619471 50.0583L1.29395 54.6777ZM6.37207 51.2852L9.9076 54.8207C11.8258 52.9025 13.3465 50.6252 14.384 48.1206L9.76465 46.207L5.1453 44.2935C4.60966 45.5866 3.82503 46.7611 2.83654 47.7496L6.37207 51.2852ZM9.76465 46.207L14.384 48.1204C15.422 45.6146 15.956 42.9286 15.9561 40.2169L10.9561 40.2168L5.95605 40.2167C5.95604 41.6158 5.68045 43.0015 5.14525 44.2936L9.76465 46.207ZM10.9561 40.2168L15.9561 40.2167C15.956 37.5048 15.4218 34.8195 14.3841 32.3142L9.76465 34.2275L5.14523 36.1409C5.6805 37.4332 5.95602 38.8182 5.95605 40.2169L10.9561 40.2168ZM9.76465 34.2275L14.384 32.3141C13.3465 29.8092 11.8258 27.5321 9.90764 25.6139L6.37207 29.1494L2.8365 32.6849C3.82514 33.6736 4.60969 34.848 5.14525 36.141L9.76465 34.2275ZM6.37207 29.1494L9.9076 25.6139C7.98938 23.6957 5.7123 22.175 3.20739 21.1374L1.29395 25.7568L-0.619496 30.3762C0.673533 30.9118 1.84793 31.6963 2.83654 32.685L6.37207 29.1494ZM0 23.9101H5V10.2178H0H-5V23.9101H0ZM10 0.217773V5.21777H116V0.217773V-4.78223H10V0.217773ZM126 10.2178H121V22.9567H126H131V10.2178H126ZM124.029 25.7568L126.064 30.3243C128.592 29.198 131 26.577 131 22.9567H126H121C121 22.4102 121.192 21.97 121.397 21.6882C121.59 21.4227 121.807 21.273 121.995 21.1894L124.029 25.7568ZM0 56.5232H5C5 57.9779 4.07471 58.9379 3.20729 59.2972L1.29395 54.6777L-0.619402 50.0583C-3.00076 51.0447 -5 53.4298 -5 56.5232H0ZM0 10.2178H5C5 7.45635 7.23858 5.21777 10 5.21777V0.217773V-4.78223C1.71573 -4.78223 -5 1.9335 -5 10.2178H0ZM126 70.2178H121C121 72.9792 118.761 75.2178 116 75.2178V80.2178V85.2178C124.284 85.2178 131 78.502 131 70.2178H126ZM1.29395 25.7568L3.20734 21.1374C4.07823 21.4982 5 22.4592 5 23.9101H0H-5C-5 27 -3.00463 29.3883 -0.619452 30.3762L1.29395 25.7568ZM124.029 54.6777L121.995 59.2452C121.808 59.1621 121.592 59.0128 121.398 58.747C121.192 58.4648 121 58.0239 121 57.4765H126H131C131 53.8541 128.59 51.2354 126.064 50.1103L124.029 54.6777ZM116 0.217773V5.21777C118.761 5.21777 121 7.45635 121 10.2178H126H131C131 1.9335 124.284 -4.78223 116 -4.78223V0.217773ZM10 80.2178V75.2178C7.23858 75.2178 5 72.9792 5 70.2178H0H-5C-5 78.502 1.71573 85.2178 10 85.2178V80.2178Z" fill="#F5F5F5" mask="url(#path-1-inside-1_431_724)"/>
<path d="M91 4V76" stroke="#F5F5F5" stroke-width="5" stroke-dasharray="10 10"/>
</svg>
