<svg width="360" height="360" viewBox="0 0 360 360" fill="none" xmlns="http://www.w3.org/2000/svg">
<path d="M314.167 5H355V45.8333" stroke="#F5F5F5" stroke-width="10"/>
<path d="M314.167 355H355V314.167" stroke="#F5F5F5" stroke-width="10"/>
<path d="M45.8333 5H4.99992V45.8333" stroke="#F5F5F5" stroke-width="10"/>
<path d="M45.8333 355H4.99992V314.167" stroke="#F5F5F5" stroke-width="10"/>
<path d="M111.495 336.667H23.6667V248.509H111.495V336.667ZM285.979 336.667L273.097 336.666H248.506V311.981H261.386V324.912H273.097V299.053H285.979V336.667ZM223.914 199.14H235.625V210.895H223.914V223.824H247.335V210.895H260.216V223.824H273.097V210.895H285.979V235.579H298.86V210.895H323.452V199.14H336.334V236.754H323.452V223.824H311.742V248.509H336.334V261.438H298.86V248.509H285.979V287.299L273.097 287.298H261.386V299.053H248.506V287.298H235.624V300.228H198.151V336.666H122.034V324.912H160.678V311.981H146.626V300.333H136.231V300.351H124.231V235.579H97.4421V223.824H136.087V209.719H147.797V235.579H160.678V223.824H173.559V210.895H185.269V223.824H198.151V210.895H211.033V186.21H223.914V199.14ZM235.625 323.735H235.624V336.666H223.914V323.735H212.204V311.981H235.625V323.735ZM336.334 336.666H323.452V323.736H298.86V299.052H285.979V287.298H298.86V273.192H336.334V336.666ZM33.6667 326.667H101.495V258.509H33.6667V326.667ZM86.9021 311.981H48.2585V273.192H86.9021V311.981ZM173.559 311.981H186.441V300.228H173.559V311.981ZM173.559 249.685H136.231V261.438H173.559V287.298H161.849V273.192H147.797V287.298H160.612V300.228H173.559V287.298H186.441V261.438H173.559V249.684H198.151V235.579H173.559V249.685ZM198.151 287.298H209.861V261.438H198.151V287.298ZM235.624 274.368H248.506V248.509H261.386V274.368H273.097V235.579H235.624V274.368ZM211.033 249.684H223.914V235.579H211.033V249.684ZM35.3767 174.456H58.7976V186.21H35.3767V197.964H58.7976V186.21H97.4421V197.964H83.3894V210.895H71.6794V197.964H58.7976V212.07H97.4421V223.824H71.6794V236.755H59.9695V223.824H47.0876V209.719H35.3767V236.754H23.6667V160.351H35.3767V174.456ZM198.151 210.895H185.269V197.964H172.388V186.21H198.151V210.895ZM310.57 174.456H324.623V161.526H336.334V187.386H323.452V199.14H311.742V187.386H298.86V210.894H285.979V199.14H273.097V186.21H298.86V161.526H310.57V174.456ZM120.863 197.964H136.086V209.719H97.4421V197.964H109.152V186.21H97.4421V174.456H120.863V197.964ZM198.151 122.737H225.085V136.843H211.033V148.596H260.217V161.526H273.097V122.737H285.979V135.666H298.86V148.596H285.979V173.281H285.978V174.456H260.216V199.14H235.625V186.21H247.335V174.456H230.94V174.455H222.743V161.525H211.033V186.21H198.151V136.842H160.678V136.841H147.797V125.087H160.678V110.982H198.151V122.737ZM160.677 174.456H172.388V186.21H147.797V197.964H136.087V174.456H147.797V161.526H160.677V174.456ZM185.269 161.525H160.678V148.596H185.269V161.525ZM336.333 161.525H310.57V148.596H336.333V161.525ZM58.7976 148.596H70.5076V160.35H58.7976V160.351H47.0876V160.35H35.3767V148.596H47.0876V136.842H58.7976V148.596ZM160.677 148.596H117.349V160.35H82.2185V148.596H110.323V136.842H160.677V148.596ZM35.3767 148.596H23.6667V123.911H35.3767V148.596ZM136.086 136.841H58.7976V125.087H136.086V136.841ZM248.506 136.841H235.625V123.911H248.506V136.841ZM336.334 135.667H298.86V122.737H336.334V135.667ZM235.624 110.981H225.085V122.736H211.033V110.981H198.151V98.0518H223.914V85.1221H235.624V110.981ZM111.495 112.158H23.6667V24H111.495V112.158ZM336.334 112.158H248.506V24H336.334V112.158ZM161.473 35.7539H186.441V48.6846H211.033V60.4385H160.677V73.3682H211.033V85.1221H198.151V98.0518H186.441V85.1221H160.678L160.677 96.876V110.982H148.968V96.876H134.915V110.982H123.205V73.3682H134.915V61.6143H123.253V60.4385H123.205V48.6846H123.253V24H161.473V35.7539ZM185.269 110.981H173.559V98.0518H185.269V110.981ZM33.6667 102.158H101.495V34H33.6667V102.158ZM258.506 102.158H326.334V34H258.506V102.158ZM86.9021 87.4736H48.2585V48.6846H86.9021V87.4736ZM311.742 87.4736H273.097V48.6846H311.742V87.4736ZM235.624 61.6143H223.914V24H235.624V61.6143ZM148.92 48.6846H160.678V38.1055H148.92V48.6846Z" fill="#F5F5F5"/>
</svg>
