<svg width="336" height="336" viewBox="0 0 336 336" fill="none" xmlns="http://www.w3.org/2000/svg">
<path d="M328 168L8 168" stroke="#F5F5F5" stroke-width="15" stroke-linecap="round" stroke-linejoin="round"/>
<path d="M296 248H232C201.83 248 186.745 248 177.373 238.627C168 229.255 168 214.17 168 184V168" stroke="#F5F5F5" stroke-width="15" stroke-linecap="round" stroke-linejoin="round"/>
<path d="M40 168V328M296 168V328" stroke="#F5F5F5" stroke-width="15" stroke-linecap="round" stroke-linejoin="round"/>
<path d="M216.642 17.5845C204.941 6.45008 185.971 6.45008 174.27 17.5845C167.655 23.8796 165.117 31.1104 172.426 38.0662L195.084 59.6271C202.384 66.5738 209.95 64.2742 216.642 57.906C228.343 46.7715 228.343 28.719 216.642 17.5845ZM216.642 17.5845C224.573 12.3718 233.491 5.0822 243.397 9.22083C248.045 11.1626 251.234 15.9158 257.613 25.4223L281.589 61.1567C290.622 74.6202 295.139 81.352 295.89 88.982C296.641 96.6121 293.517 104.021 287.268 118.838L266.534 168" stroke="#F5F5F5" stroke-width="15" stroke-linejoin="round"/>
<path d="M40 168V96C40 77.9701 47.2096 72 64 72C80.7904 72 88 77.9701 88 96V168" stroke="#F5F5F5" stroke-width="15" stroke-linecap="round" stroke-linejoin="round"/>
<path d="M88 168V96C88 77.9701 95.2096 72 112 72C128.79 72 136 77.9701 136 96V168" stroke="#F5F5F5" stroke-width="15" stroke-linecap="round" stroke-linejoin="round"/>
</svg>
