<svg width="152" height="150" viewBox="0 0 152 150" fill="none" xmlns="http://www.w3.org/2000/svg">
<path d="M72 133.487C82.7099 134.615 97.1595 138.087 104.838 128.164C109 122.784 109 114.59 109 98.2002V51.7998C109 35.4104 109 27.2157 104.838 21.8364C97.1595 11.9131 82.7099 15.3846 72 16.5133" stroke="#F5F5F5" stroke-width="3"/>
<path d="M0 54.0324C0 38.4838 0 30.7094 2.40579 24.3954C4.41536 19.1213 7.58704 14.5943 11.5837 11.2957C16.3684 7.34662 22.7896 5.9559 35.632 3.17447C48.9862 0.28218 55.6634 -1.16397 60.8598 1.14058C65.1765 3.055 68.8136 6.67081 71.167 11.3875C74 17.0654 74 25.1496 74 41.3179V108.682C74 124.85 74 132.935 71.167 138.612C68.8136 143.329 65.1765 146.945 60.8598 148.859C55.6634 151.164 48.9862 149.718 35.632 146.826C22.7896 144.044 16.3684 142.653 11.5837 138.704C7.58704 135.406 4.41536 130.879 2.40579 125.605C0 119.291 0 111.516 0 95.9676V54.0324Z" fill="#F5F5F5"/>
<path d="M52 82.5L52 67.5" stroke="black" stroke-width="5" stroke-linecap="round" stroke-linejoin="round"/>
<path d="M150 74.5L124 74.5M150 74.5C150 70.9989 140.028 64.4576 137.5 62M150 74.5C150 78.0011 140.028 84.5424 137.5 87" stroke="#F5F5F5" stroke-width="3" stroke-linecap="round" stroke-linejoin="round"/>
</svg>
