<svg width="174" height="184" viewBox="0 0 174 184" fill="none" xmlns="http://www.w3.org/2000/svg">
<path d="M44.902 106.767L65.3535 115.373L41.8457 42.0763C39.5155 34.8106 43.5164 27.0315 50.7821 24.7013C58.0478 22.371 65.8269 26.3719 68.1572 33.6376L80.8152 73.1048L104.428 69.4911C119.624 67.0158 127.222 65.7782 133.31 67.1996C143.365 69.5474 151.909 75.1759 155.462 86.2538C157.937 93.9698 157.69 99.758 157.514 115.153C157.403 124.922 157.348 129.806 156.069 134.069C153.965 141.086 149.486 147.153 143.4 151.231C139.703 153.708 135.052 155.2 125.749 158.184L117.863 160.713C105.496 164.679 99.312 166.663 93.079 166.159C91.9612 166.069 90.8491 165.919 89.7473 165.71C83.6031 164.547 78.1644 160.998 67.287 153.901L32.0731 130.924C26.6618 127.393 24.4441 120.568 26.7467 114.531C29.5143 107.275 37.7438 103.756 44.902 106.767Z" fill="#16181C" stroke="#F5F5F5" stroke-width="12" stroke-linecap="round" stroke-linejoin="round"/>
</svg>
