<svg width="50" height="50" viewBox="0 0 50 50" fill="none" xmlns="http://www.w3.org/2000/svg">
<path d="M16.8379 5.07315L0.664198 19.2259C-0.722783 20.4396 0.207164 22.5952 2.11773 22.5952C3.28497 22.5952 4.23121 23.4692 4.23121 24.5474V33.5571C4.23121 41.3084 4.23121 45.184 6.83823 47.592C9.44524 50 13.6412 50 22.033 50H27.967C36.3588 50 40.5548 50 43.1618 47.592C45.7688 45.184 45.7688 41.3084 45.7688 33.5571V24.5474C45.7688 23.4692 46.715 22.5952 47.8823 22.5952C49.7928 22.5952 50.7228 20.4396 49.3358 19.2259L33.1621 5.07314C29.297 1.69105 27.3645 0 25 0C22.6355 0 20.703 1.69105 16.8379 5.07315Z" fill="#F5F5F5" fill-opacity="0.5"/>
</svg>
