<svg width="72" height="30" viewBox="0 0 72 30" fill="none" xmlns="http://www.w3.org/2000/svg">
<g clip-path="url(#clip0_179_826)">
<path fill-rule="evenodd" clip-rule="evenodd" d="M56.9953 30H15.0047C6.71851 30 0 23.2836 0 15C0 6.71642 6.71851 0 15.0047 0H57.0327C65.3188 0 72.0373 6.71642 72.0373 15C72.0373 23.2836 65.2815 30 56.9953 30Z" fill="#FFEB00"/>
<path fill-rule="evenodd" clip-rule="evenodd" d="M16.8336 7.20117C12.3173 7.20117 8.65942 10.0743 8.65942 13.6564C8.65942 15.9325 10.1898 17.9474 12.4666 19.1042L11.6828 22.0146C11.6454 22.0892 11.6828 22.2012 11.7574 22.2758C11.7947 22.3131 11.8694 22.3504 11.9067 22.3504C11.944 22.3504 12.0187 22.3131 12.056 22.3131L15.3779 20.0743C15.8632 20.1489 16.3484 20.1862 16.8709 20.1862C21.3873 20.1862 25.0451 17.2758 25.0451 13.731C25.0451 10.0743 21.3873 7.20117 16.8336 7.20117Z" fill="black"/>
<path d="M31.9504 19.0291V23.2082H28.9644V7.79773H31.0546L31.4278 8.76788C32.0623 8.13356 33.0328 7.46191 34.5631 7.46191C37.4745 7.46191 38.8555 9.62609 38.8555 13.1709C38.8555 16.8649 36.728 19.2156 33.6673 19.2156C33.0701 19.253 32.6222 19.2156 31.9504 19.0291ZM31.9504 10.2977V16.9395C32.0997 16.9768 32.5102 17.0142 32.9208 17.0142C35.0483 17.0142 35.8695 15.5216 35.8695 13.1709C35.8695 11.1186 35.3096 9.88729 33.63 9.88729C33.0328 9.88729 32.4356 10.0365 31.9504 10.2977Z" fill="black"/>
<path d="M45.3126 12.164H46.9923V11.7908C46.9923 10.5595 46.2831 9.9998 45.0887 9.9998C44.1556 9.9998 42.9985 10.261 42.028 10.7461L41.2069 8.76845C42.252 8.02218 43.8943 7.53711 45.35 7.53711C48.1867 7.53711 49.7543 9.02965 49.7543 11.9028V18.955H47.6641L47.3655 18.0222C46.1711 18.8804 45.0514 19.2535 44.0809 19.2535C41.9161 19.2535 40.6843 17.9476 40.6843 15.7461C40.6843 13.3953 42.2893 12.164 45.3126 12.164ZM47.0296 16.0819V14.0296H45.6486C44.1182 14.0296 43.3344 14.5893 43.3344 15.6714C43.3344 16.4923 43.745 16.9028 44.6408 16.9028C45.4619 16.9401 46.507 16.5296 47.0296 16.0819Z" fill="black"/>
<path d="M58.7871 17.7981C57.742 20.5593 56.5102 22.5743 54.6813 23.6937L52.8524 22.0146C53.8975 21.0817 54.6813 20.1862 55.3158 18.9922L51.3594 8.20859L54.3081 7.42501L56.8462 16.1564L59.3469 7.3877L62.2583 8.20859L58.7871 17.7981Z" fill="black"/>
</g>
<defs>
<clipPath id="clip0_179_826">
<rect width="72" height="30" fill="white"/>
</clipPath>
</defs>
</svg>
