<svg width="108" height="49" viewBox="0 0 108 49" fill="none" xmlns="http://www.w3.org/2000/svg">
  <path d="M80.566 48.8291C95.3978 48.8291 107.421 37.8986 107.421 24.4152C107.421 10.9317 95.3978 0.0012207 80.566 0.0012207C65.7342 0.0012207 53.7107 10.9317 53.7107 24.4152C53.7107 37.8986 65.7342 48.8291 80.566 48.8291Z" fill="currentColor"/>
  <path d="M36.6209 0H0V24.4139H36.6209C43.364 24.4139 48.8279 18.9501 48.8279 12.207C48.8279 5.46384 43.364 0 36.6209 0Z" fill="currentColor"/>
  <path d="M12.207 24.4141C5.46384 24.4141 0 29.8779 0 36.621C0 43.3642 5.46384 48.828 12.207 48.828H48.8279V24.4141H12.207Z" fill="currentColor"/>
</svg>
