<svg width="44" height="49" viewBox="0 0 44 49" fill="none" xmlns="http://www.w3.org/2000/svg">
<path d="M8.13722 46.0907L7.526 47.4606L7.526 47.4606L8.13722 46.0907ZM2.73237 40.2684L1.33231 40.8068L1.33231 40.8068L2.73237 40.2684ZM41.1594 40.2684L42.5595 40.8068L42.5595 40.8068L41.1594 40.2684ZM35.7546 46.0907L36.3658 47.4606L36.3658 47.4606L35.7546 46.0907ZM35.7546 15.454L36.3658 14.0841L36.3658 14.0841L35.7546 15.454ZM41.1594 21.2763L42.5595 20.7379L42.5595 20.7379L41.1594 21.2763ZM8.13722 15.454L7.526 14.0841L7.526 14.0841L8.13722 15.454ZM2.73237 21.2763L1.33231 20.7379L1.33231 20.7379L2.73237 21.2763ZM10.459 13.7825C10.459 14.6109 11.1306 15.2825 11.959 15.2825C12.7875 15.2825 13.459 14.6109 13.459 13.7825H11.959H10.459ZM30.4327 13.7825C30.4327 14.6109 31.1043 15.2825 31.9327 15.2825C32.7612 15.2825 33.4327 14.6109 33.4327 13.7825H31.9327H30.4327ZM16.9525 14.635V16.135L26.9393 16.135V14.635V13.135L16.9525 13.135V14.635ZM26.9393 46.9097L26.9393 45.4097H16.9525V46.9097V48.4097H26.9393V46.9097ZM16.9525 46.9097V45.4097C14.6037 45.4097 12.9231 45.4087 11.598 45.3113C10.2889 45.2151 9.44227 45.0305 8.74844 44.7209L8.13722 46.0907L7.526 47.4606C8.66747 47.9699 9.90185 48.1947 11.3781 48.3033C12.8386 48.4106 14.6479 48.4097 16.9525 48.4097V46.9097ZM1.97217 30.7723H0.472168C0.472168 33.2596 0.471467 35.1949 0.570193 36.7536C0.669646 38.3238 0.874341 39.6158 1.33231 40.8068L2.73237 40.2684L4.13244 39.7301C3.8302 38.9441 3.65479 37.9943 3.56419 36.5639C3.47287 35.1221 3.47217 33.2978 3.47217 30.7723H1.97217ZM8.13722 46.0907L8.74844 44.7209C6.68521 43.8003 5.01207 42.0177 4.13244 39.7301L2.73237 40.2684L1.33231 40.8068C2.47989 43.7913 4.69511 46.1974 7.526 47.4606L8.13722 46.0907ZM41.9196 30.7723H40.4196C40.4196 33.2978 40.4189 35.1221 40.3276 36.5639C40.237 37.9943 40.0616 38.9441 39.7593 39.7301L41.1594 40.2684L42.5595 40.8068C43.0174 39.6158 43.2221 38.3238 43.3216 36.7536C43.4203 35.1949 43.4196 33.2596 43.4196 30.7723H41.9196ZM26.9393 46.9097V48.4097C29.2439 48.4097 31.0532 48.4106 32.5136 48.3033C33.9899 48.1947 35.2243 47.9699 36.3658 47.4606L35.7546 46.0907L35.1433 44.7209C34.4495 45.0305 33.6029 45.2151 32.2937 45.3113C30.9687 45.4087 29.2881 45.4097 26.9393 45.4097L26.9393 46.9097ZM41.1594 40.2684L39.7593 39.7301C38.8797 42.0177 37.2066 43.8003 35.1433 44.7209L35.7546 46.0907L36.3658 47.4606C39.1967 46.1974 41.4119 43.7913 42.5595 40.8068L41.1594 40.2684ZM26.9393 14.635V16.135C29.2881 16.135 30.9687 16.136 32.2937 16.2334C33.6029 16.3296 34.4495 16.5142 35.1433 16.8238L35.7546 15.454L36.3658 14.0841C35.2243 13.5748 33.9899 13.35 32.5136 13.2414C31.0532 13.1341 29.2439 13.135 26.9393 13.135V14.635ZM41.9196 30.7723H43.4196C43.4196 28.2851 43.4203 26.3498 43.3216 24.7911C43.2221 23.2209 43.0174 21.9289 42.5595 20.7379L41.1594 21.2763L39.7593 21.8146C40.0616 22.6006 40.237 23.5504 40.3276 24.9808C40.4189 26.4226 40.4196 28.2469 40.4196 30.7723H41.9196ZM35.7546 15.454L35.1433 16.8238C37.2066 17.7444 38.8797 19.527 39.7593 21.8146L41.1594 21.2763L42.5595 20.7379C41.4119 17.7534 39.1967 15.3473 36.3658 14.0841L35.7546 15.454ZM16.9525 14.635V13.135C14.6479 13.135 12.8386 13.1341 11.3781 13.2414C9.90185 13.35 8.66747 13.5748 7.526 14.0841L8.13722 15.454L8.74844 16.8238C9.44227 16.5142 10.2889 16.3296 11.598 16.2334C12.9231 16.136 14.6037 16.135 16.9525 16.135V14.635ZM1.97217 30.7723H3.47217C3.47217 28.2469 3.47287 26.4226 3.56419 24.9808C3.65479 23.5504 3.8302 22.6006 4.13244 21.8146L2.73237 21.2763L1.33231 20.7379C0.874341 21.9289 0.669646 23.2209 0.570193 24.7911C0.471467 26.3498 0.472168 28.2851 0.472168 30.7723H1.97217ZM8.13722 15.454L7.526 14.0841C4.69511 15.3473 2.47989 17.7534 1.33231 20.7379L2.73237 21.2763L4.13244 21.8146C5.01207 19.527 6.68521 17.7444 8.74844 16.8238L8.13722 15.454ZM11.959 13.7825H13.459V11.773H11.959H10.459V13.7825H11.959ZM31.9327 11.773H30.4327V13.7825H31.9327H33.4327V11.773H31.9327ZM21.9459 2.09058V3.59058C26.6772 3.59058 30.4327 7.29739 30.4327 11.773H31.9327H33.4327C33.4327 5.55366 28.2458 0.590576 21.9459 0.590576V2.09058ZM11.959 11.773H13.459C13.459 7.29739 17.2146 3.59058 21.9459 3.59058V2.09058V0.590576C15.646 0.590576 10.459 5.55366 10.459 11.773H11.959Z" fill="#F5F5F5"/>
</svg>
