<svg width="97" height="22" viewBox="0 0 97 22" fill="none" xmlns="http://www.w3.org/2000/svg">
<path d="M24.5775 0.532978C25.3948 0.0299717 26.4463 -0.170019 27.3545 0.203701C28.1889 0.457224 28.8303 1.14103 29.1667 1.92988C31.5658 7.33871 33.9589 12.7506 36.3591 18.1584C36.5702 18.6442 36.8429 19.1392 36.8076 19.6856C36.7904 20.4936 36.2904 21.2704 35.558 21.6138C34.758 22.0087 33.7145 21.8825 33.0609 21.2653C32.7265 20.9744 32.4922 20.5906 32.3174 20.1886C31.8416 19.0937 31.3881 17.9897 30.9042 16.8999C27.7989 16.8867 24.6947 16.8938 21.5895 16.8968C21.2006 17.7443 20.8632 18.6139 20.4854 19.4654C20.2167 20.0522 20.0399 20.7118 19.5631 21.1734C18.956 21.7936 17.9731 22.0138 17.1629 21.6976C16.3487 21.3966 15.7497 20.5573 15.781 19.6826C15.7608 19.32 15.8901 18.9755 16.0336 18.6493C18.4802 13.1435 20.9157 7.63163 23.3583 2.12381C23.6138 1.4996 24.0038 0.906697 24.5775 0.532978ZM25.3958 7.80939C24.72 9.4578 23.9846 11.084 23.3482 12.7475C25.2806 12.7607 27.213 12.7637 29.1455 12.7455C29.0233 12.4011 28.8909 12.0617 28.7434 11.7284C27.9101 9.76082 27.0938 7.78616 26.2554 5.8206C25.9342 6.46805 25.6816 7.1468 25.3958 7.80939ZM63.78 0.0784542C64.6346 -0.0437621 65.5073 0.00472046 66.368 0.0390622C67.2287 0.19057 68.1014 0.302686 68.9409 0.558229C70.1177 0.915788 71.238 1.47031 72.2148 2.21775C72.825 2.68641 73.1714 3.46516 73.0967 4.23381C73.0522 5.43274 71.8936 6.43572 70.7016 6.32664C69.7571 6.35896 69.1066 5.58526 68.3186 5.19942C67.0125 4.47723 65.4619 4.20553 63.9901 4.46208C62.5253 4.71661 61.1768 5.55395 60.2868 6.74177C58.1685 9.53658 58.5079 13.9546 61.1848 16.2746C63.2759 18.1079 66.572 18.122 68.8459 16.614C69.4318 16.2605 69.9127 15.6989 70.6087 15.5565C71.64 15.305 72.7876 15.9494 73.131 16.9504C73.4381 17.7079 73.2078 18.621 72.63 19.1866C70.7774 20.9734 68.2166 21.9481 65.6548 21.9885C64.7204 21.9966 63.7759 22.0309 62.8557 21.8421C60.7424 21.4613 58.7291 20.4583 57.2109 18.9331C54.7834 16.5827 53.6702 13.0384 54.0844 9.71031C54.4349 6.19432 56.6118 2.89448 59.7797 1.29658C61.0202 0.631963 62.4001 0.300666 63.78 0.0784542ZM84.5843 0.0572432C85.3086 -0.023561 86.0429 0.00169029 86.7713 0.0299718C87.9976 0.219862 89.2361 0.441063 90.3836 0.933969C93.3798 2.14098 95.7587 4.7752 96.6214 7.89121C97.0183 9.5578 97.1513 12.0006 96.785 13.4647C96.3496 15.3969 95.39 17.217 93.997 18.6311C92.3979 20.3017 90.2422 21.4057 87.9724 21.8158C86.8087 22.0532 85.6126 22.0117 84.4338 21.9602C82.3559 21.74 80.3153 20.9926 78.6546 19.7119C77.4434 18.7998 76.4504 17.6099 75.7322 16.2777C73.8776 12.7991 74.0493 8.30836 76.2353 5.01559C77.6172 2.88943 79.7809 1.30365 82.2043 0.57237C82.9781 0.319857 83.7883 0.218852 84.5843 0.0572432ZM84.9944 4.40451C83.4953 4.56107 82.0589 5.27012 81.0548 6.39936C79.0708 8.5932 78.8183 12.091 80.3274 14.6091C81.0366 15.8019 82.1417 16.7625 83.4408 17.2594C85.157 17.9281 87.1612 17.8301 88.7896 16.9605C89.8654 16.4009 90.7463 15.502 91.316 14.4353C92.2322 12.7314 92.3979 10.6497 91.7948 8.81541C91.2887 7.24478 90.1725 5.861 88.7047 5.09538C87.5754 4.49339 86.2632 4.2732 84.9944 4.40451ZM1.62157 0.328947C1.97512 0.209761 2.35293 0.232992 2.72063 0.231982C4.70661 0.238043 6.6936 0.231982 8.67958 0.234002C9.95542 0.213801 11.2393 0.429952 12.4283 0.894576C13.9425 1.48748 15.2648 2.60965 16.0063 4.06715C16.7902 5.59031 16.9569 7.37709 16.6942 9.05277C16.4447 10.6153 15.6517 12.095 14.4284 13.1081C12.7031 14.5545 10.3898 15.1303 8.17349 15.0939C7.01079 15.0949 5.84708 15.0868 4.68337 15.0969C4.66216 16.5878 4.68438 18.0786 4.67327 19.5694C4.65711 20.329 4.24496 21.0623 3.60452 21.4704C3.06105 21.8077 2.3802 21.937 1.75693 21.7703C0.923545 21.5774 0.233603 20.8865 0.0447024 20.0532C-0.0239887 19.6644 0.00833652 19.2674 0.00328571 18.8755C0.00429587 13.6566 0.00429585 8.43866 0.00227552 3.21972C0.0103568 2.80156 -0.0280293 2.37733 0.0548041 1.96422C0.254816 1.20062 0.863945 0.557219 1.62157 0.328947ZM4.67933 4.47319C4.67024 6.62056 4.67832 8.76793 4.67529 10.9153C5.84102 10.9577 7.00776 10.9193 8.1745 10.9355C9.19274 10.9628 10.2716 10.7254 11.0525 10.0345C12.2677 8.97904 12.3828 6.97408 11.4474 5.70243C10.7949 4.87216 9.70691 4.52875 8.68564 4.47521C7.3502 4.46309 6.01477 4.47218 4.67933 4.47319ZM34.764 1.12083C35.5196 0.127947 37.0904 -0.0680033 38.0784 0.687516C38.6239 1.09255 38.9774 1.68545 39.3603 2.2329C40.6472 4.08129 41.9291 5.93272 43.2161 7.78111C43.509 8.20635 43.7868 8.6437 44.1232 9.03863C45.9223 6.49936 47.6941 3.94089 49.4871 1.39657C49.967 0.713777 50.7448 0.162289 51.6115 0.208751C52.3176 0.174409 53.0419 0.486515 53.4571 1.0673C53.8551 1.64505 54.0046 2.40561 53.7975 3.08235C53.6854 3.49647 53.4672 3.87221 53.2147 4.21563C51.0075 7.19225 48.7972 10.1679 46.592 13.1465C46.493 13.2849 46.395 13.4374 46.4173 13.6152C46.4132 15.6393 46.4223 17.6625 46.4142 19.6856C46.3647 20.8542 45.297 21.8259 44.1393 21.841C42.9433 21.8986 41.7836 20.8956 41.7513 19.6836C41.7432 17.6948 41.7513 15.705 41.7483 13.7162C41.7675 13.5394 41.6705 13.3889 41.5745 13.2505C39.5461 10.4992 37.5208 7.74576 35.4934 4.99337C35.1307 4.47521 34.6852 3.99948 34.463 3.39749C34.1721 2.65207 34.261 1.75514 34.764 1.12083Z" fill="#FA2829"/>
</svg>
