<svg width="39" height="54" viewBox="0 0 39 54" fill="none" xmlns="http://www.w3.org/2000/svg">
<path d="M1.96973 19.5C1.96973 11.2504 1.96973 7.12563 4.52917 4.56282C7.08862 2 11.208 2 19.4467 2C27.6855 2 31.8048 2 34.3643 4.56282C36.9237 7.12563 36.9237 11.2504 36.9237 19.5V34.5C36.9237 42.7496 36.9237 46.8744 34.3643 49.4372C31.8048 52 27.6855 52 19.4467 52C11.208 52 7.08862 52 4.52917 49.4372C1.96973 46.8744 1.96973 42.7496 1.96973 34.5V19.5Z" stroke="#F5F5F5" stroke-width="3" stroke-linecap="round"/>
<path d="M16.9502 44.5H21.9436" stroke="#F5F5F5" stroke-width="3" stroke-linecap="round" stroke-linejoin="round"/>
<path d="M11.9565 2L12.1788 3.33504C12.6603 6.22823 12.9011 7.67483 13.892 8.5551C14.9256 9.47335 16.3911 9.5 19.4467 9.5C22.5023 9.5 23.9678 9.47335 25.0014 8.5551C25.9923 7.67483 26.2331 6.22822 26.7146 3.33504L26.9368 2" stroke="#F5F5F5" stroke-width="3" stroke-linejoin="round"/>
</svg>
