<svg width="72" height="54" viewBox="0 0 72 54" fill="none" xmlns="http://www.w3.org/2000/svg">
<path d="M3.57873 19.1875C2.73369 19.1875 1.96256 18.595 2.00141 17.8204C2.22892 13.2849 2.86634 10.3323 4.65228 7.99658C5.67974 6.65283 6.95602 5.48408 8.42339 4.54317C12.3896 2 17.9847 2 29.1751 2H42.825C54.0154 2 59.6105 2 63.5767 4.54317C65.044 5.48408 66.3203 6.65283 67.3478 7.99658C69.1335 10.332 69.771 13.2843 69.9986 17.8189C70.0375 18.5943 69.2654 19.1875 68.4194 19.1875C63.7077 19.1875 59.8881 22.6853 59.8881 27C59.8881 31.3147 63.7077 34.8125 68.4194 34.8125C69.2654 34.8125 70.0375 35.4057 69.9986 36.1811C69.771 40.7157 69.1335 43.668 67.3478 46.0034C66.3203 47.3472 65.044 48.5159 63.5767 49.4568C59.6105 52 54.0154 52 42.825 52H29.1751C17.9847 52 12.3896 52 8.42339 49.4568C6.95602 48.5159 5.67974 47.3472 4.65228 46.0034C2.86634 43.6677 2.22892 40.7151 2.00141 36.1796C1.96256 35.405 2.73369 34.8125 3.57873 34.8125C8.2904 34.8125 12.11 31.3147 12.11 27C12.11 22.6853 8.2904 19.1875 3.57873 19.1875Z" stroke="#F5F5F5" stroke-width="3" stroke-linejoin="round"/>
<path d="M36 18.125C32.6863 18.125 30 20.2237 30 22.8125C30 25.4013 32.6863 27.5 36 27.5C39.3137 27.5 42 29.5987 42 32.1875C42 34.7763 39.3137 36.875 36 36.875M36 18.125C38.6124 18.125 40.8349 19.4294 41.6586 21.25M36 18.125V15M36 36.875C33.3876 36.875 31.1651 35.5706 30.3414 33.75M36 36.875V40" stroke="#F5F5F5" stroke-width="3" stroke-linecap="round"/>
</svg>
