<svg width="55" height="55" viewBox="0 0 55 55" fill="none" xmlns="http://www.w3.org/2000/svg">
<g clip-path="url(#clip0_255_6)">
<path d="M54.4809 19.315C53.8053 14.2151 52 9.59305 48.8159 6.2078H48.8146C45.4293 3.02459 40.8073 1.2193 35.7068 0.543903C30.8344 -0.102164 27.5182 0.0575198 27.5182 0.0575198C27.5182 0.0575198 24.2003 -0.102164 19.3282 0.54372C14.2273 1.21912 9.60546 3.02459 6.21948 6.20762C3.03608 9.59287 1.22988 14.2149 0.554297 19.315C-0.0915862 24.1858 0.0686472 27.5033 0.0686472 27.5033C0.0686472 27.5033 -0.0915862 30.8194 0.554297 35.6917C1.22988 40.7918 3.03608 45.4125 6.21948 48.7974V48.7987C9.60546 51.9816 14.2273 53.7867 19.328 54.463C24.2001 55.1087 27.518 54.9484 27.518 54.9484C27.518 54.9484 30.8342 55.1087 35.7066 54.463C40.8071 53.7868 45.4292 51.9817 48.8144 48.7987L48.8157 48.7974C51.9998 45.4125 53.8053 40.7918 54.4807 35.6917C55.1262 30.8194 54.9663 27.5033 54.9663 27.5033C54.9663 27.5033 55.1262 24.1857 54.4809 19.315Z" fill="#1E4BC6"/>
<path d="M10.1658 19.4561H15.0976C15.8478 19.4561 16.5381 19.591 17.1695 19.8603C17.8012 20.1296 18.3463 20.4945 18.8077 20.9554C19.2675 21.4159 19.6293 21.9582 19.8922 22.583C20.1552 23.2074 20.2871 23.8748 20.2871 24.5844C20.2871 25.2949 20.1552 25.9655 19.8922 26.5973C19.6294 27.2281 19.2675 27.7739 18.8077 28.2339C18.3463 28.6946 17.7974 29.0605 17.1596 29.3293C16.5221 29.5993 15.828 29.7339 15.0782 29.7339H12.8489V33.8565H10.1658V19.4561ZM12.8489 21.9415V27.2483H14.9004C15.2953 27.2483 15.657 27.1792 15.9851 27.0411C16.3137 26.9031 16.5967 26.712 16.834 26.4686C17.0712 26.2258 17.2551 25.9428 17.3862 25.6205C17.5182 25.2982 17.5842 24.9533 17.5842 24.5844C17.5842 24.217 17.5182 23.8713 17.3862 23.549C17.2551 23.2267 17.0712 22.948 16.834 22.7108C16.5967 22.4741 16.3139 22.2865 15.9851 22.1487C15.657 22.0106 15.2953 21.9415 14.9004 21.9415H12.8489Z" fill="white"/>
<path d="M26.4823 33.8762C25.7851 33.8762 25.0977 33.7475 24.4209 33.4875C23.7424 33.2278 23.1346 32.8506 22.5952 32.3558C22.0559 31.8616 21.6217 31.256 21.2928 30.5395C20.9641 29.8242 20.8 29.0091 20.8 28.0966C20.8 27.171 20.961 26.3509 21.2831 25.6343C21.6054 24.9182 22.0326 24.3123 22.5661 23.818C23.0983 23.3241 23.7103 22.9468 24.4002 22.687C25.0911 22.4274 25.7981 22.2969 26.5215 22.2969C27.2836 22.2969 27.9876 22.4353 28.6324 22.711C29.2765 22.9869 29.8098 23.3626 30.2311 23.8394V22.3172H32.8944V33.8571H30.2311V32.2174C29.8098 32.7333 29.271 33.1383 28.6122 33.4335C27.955 33.7299 27.2449 33.8762 26.4823 33.8762ZM26.9162 31.4313C27.4156 31.4313 27.876 31.3442 28.2976 31.1715C28.7182 30.9986 29.0797 30.7575 29.3819 30.4488C29.6846 30.1395 29.9244 29.7813 30.1022 29.3737C30.2804 28.9676 30.3693 28.5287 30.3693 28.0581C30.3693 27.6016 30.2804 27.169 30.1022 26.7614C29.9244 26.3546 29.6847 25.9991 29.3819 25.6964C29.0797 25.3934 28.7182 25.156 28.2976 24.9834C27.876 24.8104 27.4154 24.7238 26.9162 24.7238C26.4293 24.7238 25.9726 24.8104 25.5447 24.9834C25.117 25.156 24.7459 25.3903 24.4302 25.6865C24.1145 25.9837 23.8679 26.3357 23.6901 26.7434C23.5125 27.151 23.4241 27.5895 23.4241 28.0579C23.4241 28.5284 23.5125 28.97 23.6901 29.3836C23.8679 29.7972 24.1145 30.1544 24.4302 30.4572C24.7457 30.7612 25.117 30.9982 25.5447 31.1713C25.9726 31.3444 26.4293 31.4313 26.9162 31.4313Z" fill="white"/>
<path d="M38.4974 33.3573L33.7625 22.3164H36.6034L39.8187 30.2124L42.858 22.3164H45.6595L38.773 39.1627H36.0715L38.4974 33.3573Z" fill="white"/>
</g>
<defs>
<clipPath id="clip0_255_6">
<rect width="55" height="55" fill="white"/>
</clipPath>
</defs>
</svg>
